<svg xmlns="http://www.w3.org/2000/svg" fill="none" viewBox="0 0 96 96" height="96" width="96">
<rect fill="#96A8FE" rx="48" height="96" width="96"></rect>
<path fill="#DAF855" d="M45.4002 62.9528C41.706 64.3109 37.6023 64.7772 34.2252 63.1787C31.8844 62.0602 30.9995 59.8257 30.973 57.3013C30.9029 55.9952 31.2269 54.1103 31.9442 53.245C33.9986 50.9303 37.3612 51.0199 40.9246 51.6959C45.26 52.6755 49.504 55.1095 52.1193 58.6961C50.2093 60.5444 47.9044 62.0065 45.4002 62.9528ZM66.4602 58.4369C68.8472 53.2816 69.7791 47.4401 69.0481 41.8091C66.6568 21.9407 42.802 15.5331 26.5375 23.0567L30.4087 32.0578C35.8487 30.0731 42.6712 30.0534 48.1053 32.0484C55.5596 34.7688 58.2946 40.4066 57.573 47.1408C56.9549 46.5875 56.3137 46.0717 55.6596 45.5952C42.2574 35.4116 18.9669 36.7604 19.0003 57.4838C18.9498 67.4985 26.3238 74.9676 36.1454 75.8738C44.7924 76.6727 52.9546 73.6325 59.2658 68.0578C63.8449 72.6504 69.4422 75.1841 77 75.0614V63.4651C75.5338 63.4455 74.1547 63.3057 72.9484 62.9988C70.1604 62.3662 68.1701 60.581 66.4602 58.4369Z"></path>
</svg>
