<svg width="651" height="110" viewBox="0 0 651 110" fill="none" xmlns="http://www.w3.org/2000/svg">
<path d="M163.376 22.09H150.435V35.691H163.345C163.333 39.703 163.321 43.684 163.317 47.598C163.513 56.082 165.829 64.383 171.688 71.062C184.173 85.457 207.536 83.293 217.231 66.934L206.435 60.246C201.161 68.973 188.485 69.988 182.114 62.047C178.591 57.91 177.427 51.48 177.763 45.957C177.798 44.852 177.903 42.004 177.938 40.855C178.052 37.469 178.173 33.988 178.298 30.469H211.997V15.574L178.767 17.789C179.001 11.758 179.247 5.76599 179.497 0.0589905H163.333C163.384 7.23799 163.388 14.656 163.376 22.09Z" fill="#5A4FD3"></path>
<path d="M113.638 66.895C109.317 68.488 104.517 69.035 100.567 67.16C97.8293 65.848 96.7943 63.227 96.7633 60.266C96.6813 58.734 97.0603 56.523 97.8993 55.508C100.302 52.793 104.235 52.898 108.403 53.691C113.474 54.84 118.438 57.695 121.497 61.902C119.263 64.07 116.567 65.785 113.638 66.895ZM138.271 61.598C141.063 55.551 142.153 48.699 141.298 42.094C138.501 18.789 110.599 11.273 91.5753 20.098L96.1033 30.656C102.466 28.328 110.446 28.305 116.802 30.645C125.521 33.836 128.72 40.449 127.876 48.348C127.153 47.699 126.403 47.094 125.638 46.535C109.962 34.59 82.7203 36.172 82.7593 60.48C82.7003 72.227 91.3254 80.988 102.813 82.051C112.927 82.988 122.474 79.422 129.856 72.883C135.212 78.27 141.759 81.242 150.599 81.098V67.496C148.884 67.473 147.271 67.309 145.86 66.949C142.599 66.207 140.271 64.113 138.271 61.598Z" fill="#5A4FD3"></path>
<path d="M253.61 66.621C248.505 65.918 244.251 63.57 242.403 58.883C239.872 52.164 241.728 43.223 248.716 40.121C256.583 36.582 265.423 39.566 272.642 44.852C276.489 47.766 279.872 51.297 282.821 55.215C275.224 62.73 263.876 67.965 253.61 66.621ZM294.517 0.0589905V48.625C283.259 32.156 262.876 17.965 242.56 26.504C222.657 34.75 220.267 65.02 238.415 76.383C254.544 85.945 274.575 79.078 287.665 67.758C288.286 67.223 288.895 66.668 289.493 66.109C291.481 70.102 293.138 74.262 294.462 78.438L294.517 78.418V78.453H309.931V0.0589905H294.517Z" fill="#5A4FD3"></path>
<path d="M344.372 31.367V20.371H328.958V78.453H344.372V52.48C344.817 49.574 346.302 46.699 348.478 44.18C355.368 36.18 367.45 31.777 377.548 32.746V15.914C367.243 16.594 357.571 20.426 349.544 26.664C347.743 28.07 346.001 29.652 344.372 31.367Z" fill="#5A4FD3"></path>
<path d="M530.899 63.707C523.032 67.246 514.196 64.262 506.978 58.977C503.126 56.062 499.747 52.531 496.798 48.613C504.395 41.098 515.739 35.867 526.005 37.207C531.11 37.914 535.364 40.258 537.216 44.945C539.743 51.664 537.892 60.605 530.899 63.707ZM541.2 27.445C525.071 17.883 505.044 24.75 491.954 36.07C491.329 36.609 490.724 37.16 490.122 37.723C488.138 33.727 486.481 29.566 485.153 25.391L485.103 25.41V25.375H469.688V109.941H485.103V55.207C496.356 71.676 516.739 85.863 537.06 77.324C556.958 69.082 559.353 38.812 541.2 27.445Z" fill="#5A4FD3"></path>
<path d="M627.728 63.707C619.86 67.246 611.024 64.262 603.806 58.977C599.958 56.062 596.575 52.531 593.626 48.613C601.224 41.098 612.571 35.867 622.837 37.207C627.942 37.914 632.196 40.258 634.044 44.945C636.571 51.664 634.72 60.605 627.728 63.707ZM638.032 27.445C621.899 17.883 601.872 24.75 588.782 36.07C588.161 36.609 587.552 37.16 586.954 37.723C584.966 33.727 583.31 29.566 581.985 25.391L581.931 25.41V25.375H566.517V109.941H581.931V55.207C593.188 71.676 613.567 85.863 633.888 77.324C653.79 69.082 656.181 38.812 638.032 27.445Z" fill="#5A4FD3"></path>
<path d="M418.282 66.234C395.634 66.234 395.634 54.641 395.634 50.277C395.634 43.758 395.634 36.367 418.282 36.367C440.927 36.367 440.927 43.758 440.927 50.277C440.927 54.641 440.927 66.234 418.282 66.234ZM418.282 21.863C402.329 21.863 381.126 24.805 381.126 50.277C381.126 59.438 384.747 80.742 418.282 80.742C451.813 80.742 455.435 59.438 455.435 50.277C455.435 24.805 434.231 21.863 418.282 21.863Z" fill="#5A4FD3"></path>
<path d="M71.9384 62.68C71.8924 60.082 71.7824 53.34 71.7394 50.824C71.7714 42.586 70.1734 33.805 63.5054 27.879C52.4194 18.176 36.3214 24.312 26.8254 32.969C21.8604 37.344 17.7554 42.457 14.3644 48.004L13.9314 20.273L0.333374 20.469L2.14537 78.441V78.59L8.49338 78.492L11.6884 78.441H14.4274C14.4274 78.43 14.4234 78.414 14.4234 78.398C14.4154 77.633 14.5954 76.902 14.8024 76.188C14.8134 76.145 14.8294 76.102 14.8414 76.059C15.7944 72.473 16.9784 68.926 18.3884 65.508C22.0404 56.652 27.3604 48.145 34.5994 41.992C39.5014 37.93 45.2784 34.637 51.2744 35.445C59.7004 37.18 58.5874 48.066 58.5014 54.773C58.4234 59.859 58.1734 73.125 58.0754 78.441H72.2314C72.2314 78.344 71.9384 62.68 71.9384 62.68Z" fill="#5A4FD3"></path>
</svg>
